<svg width="94" height="81" viewBox="0 0 94 81" fill="none" xmlns="http://www.w3.org/2000/svg">
<g filter="url(#filter0_d_1021_30)">
<circle cx="29" cy="28" r="10.5" stroke="#00FF08" stroke-width="7" shape-rendering="crispEdges"/>
</g>
<g filter="url(#filter1_d_1021_30)">
<circle cx="67" cy="28" r="10.5" stroke="#00FF08" stroke-width="7" shape-rendering="crispEdges"/>
</g>
<g filter="url(#filter2_d_1021_30)">
<path d="M53.5 6.58803L51 14.088L75 3.58801L83 4.58803C79 0.188035 73.6667 -0.245299 71.5 0.0880345L53.5 6.58803Z" fill="#00FF08"/>
</g>
<g filter="url(#filter3_d_1021_30)">
<path d="M41.5 6.54687L44 14L20 3.56559L12 4.55936C16 0.18686 21.3333 -0.243766 23.5 0.0874843L41.5 6.54687Z" fill="#00FF08"/>
</g>
<path d="M8.86633 76.32C7.74633 76.32 6.70633 76.1467 5.74633 75.8C4.79966 75.44 3.97299 74.9333 3.26633 74.28C2.57299 73.6267 2.03299 72.8533 1.64633 71.96C1.25966 71.0667 1.06633 70.08 1.06633 69C1.06633 67.92 1.25966 66.9333 1.64633 66.04C2.03299 65.1467 2.57299 64.3733 3.26633 63.72C3.97299 63.0667 4.79966 62.5667 5.74633 62.22C6.70633 61.86 7.74633 61.68 8.86633 61.68C10.2397 61.68 11.453 61.92 12.5063 62.4C13.573 62.88 14.453 63.5733 15.1463 64.48L12.1663 67.14C11.753 66.62 11.293 66.22 10.7863 65.94C10.293 65.6467 9.733 65.5 9.10633 65.5C8.613 65.5 8.16633 65.58 7.76633 65.74C7.36633 65.9 7.01966 66.1333 6.72633 66.44C6.44633 66.7467 6.22633 67.12 6.06633 67.56C5.90633 67.9867 5.82633 68.4667 5.82633 69C5.82633 69.5333 5.90633 70.02 6.06633 70.46C6.22633 70.8867 6.44633 71.2533 6.72633 71.56C7.01966 71.8667 7.36633 72.1 7.76633 72.26C8.16633 72.42 8.613 72.5 9.10633 72.5C9.733 72.5 10.293 72.36 10.7863 72.08C11.293 71.7867 11.753 71.38 12.1663 70.86L15.1463 73.52C14.453 74.4133 13.573 75.1067 12.5063 75.6C11.453 76.08 10.2397 76.32 8.86633 76.32ZM23.0138 76.32C20.8672 76.32 19.1938 75.74 17.9938 74.58C16.7938 73.42 16.1938 71.7933 16.1938 69.7V62H20.9138V69.56C20.9138 70.6267 21.1072 71.3867 21.4938 71.84C21.8805 72.28 22.4005 72.5 23.0538 72.5C23.7205 72.5 24.2405 72.28 24.6138 71.84C25.0005 71.3867 25.1938 70.6267 25.1938 69.56V62H29.8338V69.7C29.8338 71.7933 29.2338 73.42 28.0338 74.58C26.8338 75.74 25.1605 76.32 23.0138 76.32ZM31.4974 76V73.1L39.2974 64.02L39.8774 65.66H31.6974V62H44.0374V64.9L36.2374 73.98L35.6574 72.34H44.3574V76H31.4974ZM48.7679 76V65.66H44.6679V62H57.5879V65.66H53.4879V76H48.7679ZM65.9585 76.32C64.8252 76.32 63.7718 76.14 62.7985 75.78C61.8385 75.42 61.0052 74.9133 60.2985 74.26C59.5918 73.5933 59.0385 72.8133 58.6385 71.92C58.2518 71.0267 58.0585 70.0533 58.0585 69C58.0585 67.9333 58.2518 66.96 58.6385 66.08C59.0385 65.1867 59.5918 64.4133 60.2985 63.76C61.0052 63.0933 61.8385 62.58 62.7985 62.22C63.7718 61.86 64.8252 61.68 65.9585 61.68C67.1052 61.68 68.1585 61.86 69.1185 62.22C70.0785 62.58 70.9118 63.0933 71.6185 63.76C72.3252 64.4133 72.8718 65.1867 73.2585 66.08C73.6585 66.96 73.8585 67.9333 73.8585 69C73.8585 70.0533 73.6585 71.0267 73.2585 71.92C72.8718 72.8133 72.3252 73.5933 71.6185 74.26C70.9118 74.9133 70.0785 75.42 69.1185 75.78C68.1585 76.14 67.1052 76.32 65.9585 76.32ZM65.9585 72.5C66.3985 72.5 66.8052 72.42 67.1785 72.26C67.5652 72.1 67.8985 71.8733 68.1785 71.58C68.4718 71.2733 68.6985 70.9067 68.8585 70.48C69.0185 70.04 69.0985 69.5467 69.0985 69C69.0985 68.4533 69.0185 67.9667 68.8585 67.54C68.6985 67.1 68.4718 66.7333 68.1785 66.44C67.8985 66.1333 67.5652 65.9 67.1785 65.74C66.8052 65.58 66.3985 65.5 65.9585 65.5C65.5185 65.5 65.1052 65.58 64.7185 65.74C64.3452 65.9 64.0118 66.1333 63.7185 66.44C63.4385 66.7333 63.2185 67.1 63.0585 67.54C62.8985 67.9667 62.8185 68.4533 62.8185 69C62.8185 69.5467 62.8985 70.04 63.0585 70.48C63.2185 70.9067 63.4385 71.2733 63.7185 71.58C64.0118 71.8733 64.3452 72.1 64.7185 72.26C65.1052 72.42 65.5185 72.5 65.9585 72.5ZM75.5716 76V62H79.4516L85.0516 71.14H83.0116L88.4516 62H92.3316L92.3716 76H88.0716L88.0316 68.48H88.7116L84.9916 74.74H82.9116L79.0316 68.48H79.8716V76H75.5716Z" fill="black"/>
<defs>
<filter id="filter0_d_1021_30" x="11" y="14" width="36" height="36" filterUnits="userSpaceOnUse" color-interpolation-filters="sRGB">
<feFlood flood-opacity="0" result="BackgroundImageFix"/>
<feColorMatrix in="SourceAlpha" type="matrix" values="0 0 0 0 0 0 0 0 0 0 0 0 0 0 0 0 0 0 127 0" result="hardAlpha"/>
<feOffset dy="4"/>
<feGaussianBlur stdDeviation="2"/>
<feComposite in2="hardAlpha" operator="out"/>
<feColorMatrix type="matrix" values="0 0 0 0 0 0 0 0 0 0 0 0 0 0 0 0 0 0 0.25 0"/>
<feBlend mode="normal" in2="BackgroundImageFix" result="effect1_dropShadow_1021_30"/>
<feBlend mode="normal" in="SourceGraphic" in2="effect1_dropShadow_1021_30" result="shape"/>
</filter>
<filter id="filter1_d_1021_30" x="49" y="14" width="36" height="36" filterUnits="userSpaceOnUse" color-interpolation-filters="sRGB">
<feFlood flood-opacity="0" result="BackgroundImageFix"/>
<feColorMatrix in="SourceAlpha" type="matrix" values="0 0 0 0 0 0 0 0 0 0 0 0 0 0 0 0 0 0 127 0" result="hardAlpha"/>
<feOffset dy="4"/>
<feGaussianBlur stdDeviation="2"/>
<feComposite in2="hardAlpha" operator="out"/>
<feColorMatrix type="matrix" values="0 0 0 0 0 0 0 0 0 0 0 0 0 0 0 0 0 0 0.25 0"/>
<feBlend mode="normal" in2="BackgroundImageFix" result="effect1_dropShadow_1021_30"/>
<feBlend mode="normal" in="SourceGraphic" in2="effect1_dropShadow_1021_30" result="shape"/>
</filter>
<filter id="filter2_d_1021_30" x="47" y="0" width="40" height="22.088" filterUnits="userSpaceOnUse" color-interpolation-filters="sRGB">
<feFlood flood-opacity="0" result="BackgroundImageFix"/>
<feColorMatrix in="SourceAlpha" type="matrix" values="0 0 0 0 0 0 0 0 0 0 0 0 0 0 0 0 0 0 127 0" result="hardAlpha"/>
<feOffset dy="4"/>
<feGaussianBlur stdDeviation="2"/>
<feComposite in2="hardAlpha" operator="out"/>
<feColorMatrix type="matrix" values="0 0 0 0 0 0 0 0 0 0 0 0 0 0 0 0 0 0 0.25 0"/>
<feBlend mode="normal" in2="BackgroundImageFix" result="effect1_dropShadow_1021_30"/>
<feBlend mode="normal" in="SourceGraphic" in2="effect1_dropShadow_1021_30" result="shape"/>
</filter>
<filter id="filter3_d_1021_30" x="8" y="0" width="40" height="22" filterUnits="userSpaceOnUse" color-interpolation-filters="sRGB">
<feFlood flood-opacity="0" result="BackgroundImageFix"/>
<feColorMatrix in="SourceAlpha" type="matrix" values="0 0 0 0 0 0 0 0 0 0 0 0 0 0 0 0 0 0 127 0" result="hardAlpha"/>
<feOffset dy="4"/>
<feGaussianBlur stdDeviation="2"/>
<feComposite in2="hardAlpha" operator="out"/>
<feColorMatrix type="matrix" values="0 0 0 0 0 0 0 0 0 0 0 0 0 0 0 0 0 0 0.25 0"/>
<feBlend mode="normal" in2="BackgroundImageFix" result="effect1_dropShadow_1021_30"/>
<feBlend mode="normal" in="SourceGraphic" in2="effect1_dropShadow_1021_30" result="shape"/>
</filter>
</defs>
</svg>
